# xmcd CD database file
#
# Track frame offsets:
#	150
#	18352
#	44173
#	64871
#	84797
#	100942
#	122632
#	155401
#	174332
#	198733
#
# Disc length: 2902 seconds
#
# Revision: 0
# Processed by: cddbd v1.5.2PL0 Copyright (c) Steve Scherf et al.
# Submitted via: NeoAudio 9.9.9
#
DISCID=7f0b540a
DTITLE=Opa-Opa - Los Paisajes
DYEAR=2006
DGENRE=Salsa
TTITLE0=Tambo
TTITLE1=Descarga Opa-Opa
TTITLE2=El Huequito
TTITLE3=La Puerta
TTITLE4=Mujer Mujer
TTITLE5=La Guarie
TTITLE6=Canto a Limon
TTITLE7=Los Paisajes
TTITLE8=Puerto Viejo
TTITLE9=Soledad
EXTD=YEAR: 2006
EXTT0=
EXTT1=
EXTT2=
EXTT3=
EXTT4=
EXTT5=
EXTT6=
EXTT7=
EXTT8=
EXTT9=
PLAYORDER=
